<?xml version="1.0" encoding="UTF-8" standalone="no"?>
<svg
    viewBox="-12 -12 152 152"
    width="128"
    height="128"
    version="1.1"
    id="svg3"
    sodipodi:docname="com.github.bl4ckspell7.asusctl-gui.svg"
    xml:space="preserve"
    inkscape:version="1.4.3 (0d15f75042, 2025-12-25)"
    xmlns:inkscape="http://www.inkscape.org/namespaces/inkscape"
    xmlns:sodipodi="http://sodipodi.sourceforge.net/DTD/sodipodi-0.dtd"
    xmlns="http://www.w3.org/2000/svg"
    xmlns:svg="http://www.w3.org/2000/svg"><sodipodi:namedview
     id="namedview3"
     pagecolor="#ffffff"
     bordercolor="#000000"
     borderopacity="0.25"
     inkscape:showpageshadow="2"
     inkscape:pageopacity="0.0"
     inkscape:pagecheckerboard="0"
     inkscape:deskcolor="#d1d1d1"
     inkscape:zoom="2.0722163"
     inkscape:cx="4.1018885"
     inkscape:cy="100.61691"
     inkscape:window-width="1440"
     inkscape:window-height="760"
     inkscape:window-x="0"
     inkscape:window-y="0"
     inkscape:window-maximized="1"
     inkscape:current-layer="svg3" /><defs
     id="defs2"><linearGradient
       id="bg-gradient"
       x1="0"
       y1="0"
       x2="0"
       y2="1"><stop
         offset="0%"
         stop-color="#07BBFD"
         id="stop1" /><stop
         offset="100%"
         stop-color="#0584C7"
         id="stop2" /></linearGradient><clipPath
       id="_clipPath_CHRnLOITGqiXLlZjYLaUfMylStiUiIRD"><rect
         width="128"
         height="128"
         id="rect1" /></clipPath></defs><!--
    Rounded background --><rect
     x="0"
     y="0"
     width="128"
     height="128"
     rx="23"
     fill="url(#bg-gradient)"
     id="rect2"
     inkscape:label="background" /><!--
    Laptop screen --><rect
     x="20"
     y="34"
     width="88"
     height="56"
     rx="4"
     fill="#fff"
     stroke="#000"
     stroke-width="4"
     id="rect3"
     inkscape:label="screen" /><!--
    Laptop base --><path
     d="M14,94 L114,94"
     stroke="#000"
     stroke-width="4"
     stroke-linecap="round"
     id="path3"
     inkscape:label="keyboard" /><g
     id="g3"
     transform="translate(48, 48) scale(2)"
     fill="#000000"
     inkscape:label="wrench"><path
       d="m 11.5 0 c -2.484375 0 -4.5 2.015625 -4.5 4.5 c 0 0.296875 0.027344 0.589844 0.085938 0.878906 l -6.351563 6.351563 c -0.472656 0.472656 -0.734375 1.105469 -0.734375 1.769531 s 0.261719 1.296875 0.734375 1.769531 c 0.972656 0.972657 2.558594 0.972657 3.535156 0 l 6.351563 -6.355469 c 0.289062 0.058594 0.582031 0.085938 0.878906 0.085938 c 2.484375 0 4.5 -2.015625 4.5 -4.5 c 0 -0.574219 -0.109375 -1.144531 -0.324219 -1.675781 l -2.175781 2.175781 h -2.5 v -2.5 l 2.175781 -2.175781 c -0.53125 -0.214844 -1.101562 -0.324219 -1.675781 -0.324219 z m -9 12.5 c 0.550781 0 1 0.449219 1 1 s -0.449219 1 -1 1 s -1 -0.449219 -1 -1 s 0.449219 -1 1 -1 z m 0 0"
       id="path1" /></g></svg>